<svg xmlns="http://www.w3.org/2000/svg"  viewBox="0 0 64 64" width="96px" height="96px"><linearGradient id="vdDjifymOrEtG8WhAV1X_a" x1="29" x2="29" y1="30.713" y2="33.106" gradientUnits="userSpaceOnUse"><stop offset="0" stop-color="#8ab4ff"/><stop offset="1" stop-color="#e492ff"/></linearGradient><circle cx="29" cy="32" r="1" fill="url(#vdDjifymOrEtG8WhAV1X_a)"/><linearGradient id="vdDjifymOrEtG8WhAV1X_b" x1="35" x2="35" y1="30.713" y2="33.106" gradientUnits="userSpaceOnUse"><stop offset="0" stop-color="#8ab4ff"/><stop offset="1" stop-color="#e492ff"/></linearGradient><circle cx="35" cy="32" r="1" fill="url(#vdDjifymOrEtG8WhAV1X_b)"/><linearGradient id="vdDjifymOrEtG8WhAV1X_c" x1="32" x2="32" y1="34.798" y2="36.859" gradientUnits="userSpaceOnUse"><stop offset="0" stop-color="#8ab4ff"/><stop offset="1" stop-color="#e492ff"/></linearGradient><path fill="url(#vdDjifymOrEtG8WhAV1X_c)" d="M32,37L32,37c-1.105,0-2-0.895-2-2v0h4v0C34,36.105,33.105,37,32,37z"/><linearGradient id="vdDjifymOrEtG8WhAV1X_d" x1="12" x2="12" y1="9.468" y2="13.819" gradientUnits="userSpaceOnUse"><stop offset="0" stop-color="#8ab4ff"/><stop offset="1" stop-color="#e492ff"/></linearGradient><circle cx="12" cy="12" r="2" fill="url(#vdDjifymOrEtG8WhAV1X_d)"/><linearGradient id="vdDjifymOrEtG8WhAV1X_e" x1="52" x2="52" y1="9.468" y2="13.819" gradientUnits="userSpaceOnUse"><stop offset="0" stop-color="#8ab4ff"/><stop offset="1" stop-color="#e492ff"/></linearGradient><circle cx="52" cy="12" r="2" fill="url(#vdDjifymOrEtG8WhAV1X_e)"/><linearGradient id="vdDjifymOrEtG8WhAV1X_f" x1="12" x2="12" y1="49.553" y2="53.533" gradientUnits="userSpaceOnUse"><stop offset="0" stop-color="#8ab4ff"/><stop offset="1" stop-color="#e492ff"/></linearGradient><circle cx="12" cy="52" r="2" fill="url(#vdDjifymOrEtG8WhAV1X_f)"/><linearGradient id="vdDjifymOrEtG8WhAV1X_g" x1="52" x2="52" y1="49.553" y2="53.533" gradientUnits="userSpaceOnUse"><stop offset="0" stop-color="#8ab4ff"/><stop offset="1" stop-color="#e492ff"/></linearGradient><circle cx="52" cy="52" r="2" fill="url(#vdDjifymOrEtG8WhAV1X_g)"/><linearGradient id="vdDjifymOrEtG8WhAV1X_h" x1="32" x2="32" y1="4.064" y2="57.302" gradientUnits="userSpaceOnUse"><stop offset="0" stop-color="#1A6DFF"/><stop offset="1" stop-color="#C822FF"/></linearGradient><path fill="url(#vdDjifymOrEtG8WhAV1X_h)" d="M52,45.967c-0.951,0-1.847,0.228-2.646,0.623c-0.52-0.509-1.249-0.671-1.909-0.497	l-2.745-2.745c0.141-0.486,0.095-1.01-0.139-1.468C46.707,39.156,48,35.729,48,32s-1.293-7.156-3.44-9.88	c0.238-0.465,0.282-1,0.132-1.493l2.752-2.753c0.168,0.044,0.338,0.075,0.511,0.075c0.506,0,1.011-0.192,1.399-0.573	C50.153,17.772,51.049,18,52,18c3.309,0,6-2.691,6-6s-2.691-6-6-6s-6,2.691-6,6c0,0.899,0.204,1.75,0.56,2.516l-0.02,0.02	c-0.521,0.521-0.686,1.258-0.51,1.924l-2.804,2.805c-0.451-0.1-0.926-0.039-1.346,0.175C39.157,17.293,35.729,16,32,16	s-7.157,1.293-9.88,3.44c-0.419-0.214-0.894-0.276-1.346-0.175L17.97,16.46c0.175-0.666,0.011-1.403-0.51-1.924l-0.02-0.02	C17.796,13.75,18,12.899,18,12c0-3.309-2.691-6-6-6s-6,2.691-6,6s2.691,6,6,6c0.951,0,1.847-0.228,2.647-0.623	c0.388,0.38,0.893,0.573,1.399,0.573c0.172,0,0.343-0.03,0.511-0.075l2.752,2.753c-0.15,0.493-0.106,1.027,0.132,1.493	C17.293,24.844,16,28.271,16,32s1.293,7.156,3.44,9.88c-0.234,0.458-0.281,0.981-0.139,1.468l-2.745,2.745	c-0.66-0.174-1.389-0.012-1.909,0.497c-0.8-0.395-1.696-0.623-2.647-0.623c-3.309,0-6,2.691-6,6s2.691,6,6,6s6-2.691,6-6	c0-0.899-0.204-1.749-0.56-2.516l0.02-0.02c0.521-0.521,0.686-1.259,0.511-1.925l2.779-2.779c0.152,0.036,0.307,0.06,0.462,0.06	c0.313,0,0.623-0.082,0.909-0.228C24.844,46.707,28.271,48,32,48s7.156-1.293,9.88-3.44c0.285,0.146,0.595,0.228,0.909,0.228	c0.156,0,0.31-0.024,0.462-0.06l2.779,2.779c-0.175,0.666-0.011,1.404,0.511,1.925l0.02,0.02C46.204,50.218,46,51.068,46,51.967	c0,3.309,2.691,6,6,6s6-2.691,6-6S55.309,45.967,52,45.967z M52,8c2.206,0,4,1.794,4,4s-1.794,4-4,4s-4-1.794-4-4S49.794,8,52,8z M8,12c0-2.206,1.794-4,4-4s4,1.794,4,4s-1.794,4-4,4S8,14.206,8,12z M32,18c7.72,0,14,6.28,14,14c0,3.356-1.189,6.439-3.166,8.854	c-0.843-1.773-2.09-3.285-3.614-4.431C39.715,35.383,40,34.226,40,33v-3c0-4.411-3.589-8-8-8s-8,3.589-8,8v3	c0,1.224,0.284,2.38,0.778,3.418c-1.523,1.146-2.768,2.661-3.611,4.436C19.19,38.44,18,35.357,18,32C18,24.28,24.28,18,32,18z M26,33v-3c0-3.309,2.691-6,6-6s6,2.691,6,6v3c0,3.309-2.691,6-6,6S26,36.309,26,33z M12,55.967c-2.206,0-4-1.794-4-4s1.794-4,4-4	s4,1.794,4,4S14.206,55.967,12,55.967z M22.673,42.411c0.666-1.733,1.779-3.202,3.184-4.294C27.326,39.877,29.534,41,32,41	c2.465,0,4.671-1.122,6.14-2.88c1.406,1.093,2.521,2.561,3.187,4.292C38.848,44.635,35.584,46,32,46	C28.416,46,25.152,44.635,22.673,42.411z M52,55.967c-2.206,0-4-1.794-4-4s1.794-4,4-4s4,1.794,4,4S54.206,55.967,52,55.967z"/></svg>