<svg xmlns="http://www.w3.org/2000/svg"  viewBox="0 0 64 64" width="96px" height="96px"><linearGradient id="PhzApk82IvAkLX6hIcAAIa" x1="31.218" x2="31.218" y1="3.5" y2="57.89" gradientUnits="userSpaceOnUse" spreadMethod="reflect"><stop offset="0" stop-color="#1A6DFF"/><stop offset="1" stop-color="#C822FF"/></linearGradient><path fill="url(#PhzApk82IvAkLX6hIcAAIa)" d="M23.207,3.793l-1.414,1.414L25.586,9L8.744,25.843C7.633,26.953,7.021,28.43,7.021,30 s0.611,3.047,1.722,4.157l20.099,20.1c1.146,1.146,2.652,1.719,4.158,1.719s3.011-0.572,4.158-1.719L55.414,36L23.207,3.793z M35.744,52.843c-1.513,1.512-3.975,1.512-5.487,0l-20.099-20.1C9.425,32.011,9.021,31.036,9.021,30s0.403-2.011,1.136-2.743 L27,10.414L52.586,36L35.744,52.843z"/><linearGradient id="PhzApk82IvAkLX6hIcAAIb" x1="56" x2="56" y1="3.5" y2="57.89" gradientUnits="userSpaceOnUse" spreadMethod="reflect"><stop offset="0" stop-color="#1A6DFF"/><stop offset="1" stop-color="#C822FF"/></linearGradient><path fill="url(#PhzApk82IvAkLX6hIcAAIb)" d="M56.823,45.432L56,44.24l-0.823,1.191C54.479,46.441,51,51.601,51,54c0,2.757,2.243,5,5,5 s5-2.243,5-5C61,51.601,57.521,46.441,56.823,45.432z"/><linearGradient id="PhzApk82IvAkLX6hIcAAIc" x1="33" x2="33" y1="37.051" y2="51.883" gradientUnits="userSpaceOnUse" spreadMethod="reflect"><stop offset="0" stop-color="#8ab4ff"/><stop offset="1" stop-color="#e492ff"/></linearGradient><path fill="url(#PhzApk82IvAkLX6hIcAAIc)" d="M17.243,37l14.427,14.429c0.732,0.732,1.925,0.733,2.659-0.001L48.757,37H17.243z"/><linearGradient id="PhzApk82IvAkLX6hIcAAId" x1="56" x2="56" y1="22.435" y2="56.309" gradientUnits="userSpaceOnUse" spreadMethod="reflect"><stop offset="0" stop-color="#8ab4ff"/><stop offset="1" stop-color="#e492ff"/></linearGradient><path fill="url(#PhzApk82IvAkLX6hIcAAId)" d="M56,57c-1.654,0-3-1.346-3-3c0-1.092,1.561-3.942,3-6.192c1.439,2.249,3,5.099,3,6.192 C59,55.654,57.654,57,56,57z"/></svg>