<svg xmlns="http://www.w3.org/2000/svg"  viewBox="0 0 64 64" width="96px" height="96px"><linearGradient id="~Gk5Lkr9emUHat3GZQXMHa" x1="32" x2="32" y1="25.667" y2="53.365" gradientUnits="userSpaceOnUse" spreadMethod="reflect"><stop offset="0" stop-color="#1A6DFF"/><stop offset="1" stop-color="#C822FF"/></linearGradient><path fill="url(#~Gk5Lkr9emUHat3GZQXMHa)" d="M55 51L55 30 53 30 53 51 49 51 49 26 47 26 47 51 43 51 43 33 41 33 41 51 35 51 35 37 33 37 33 51 29 51 29 42 27 42 27 51 23 51 23 30 21 30 21 51 17 51 17 46 15 46 15 51 11 51 11 42 9 42 9 51 6 51 6 53 58 53 58 51z"/><linearGradient id="~Gk5Lkr9emUHat3GZQXMHb" x1="31.146" x2="31.146" y1="10.5" y2="29.883" gradientUnits="userSpaceOnUse" spreadMethod="reflect"><stop offset="0" stop-color="#8ab4ff"/><stop offset="1" stop-color="#e492ff"/></linearGradient><path fill="url(#~Gk5Lkr9emUHat3GZQXMHb)" d="M50.812,11.065l-5.178,1.436c-0.639,0.177-0.849,0.977-0.38,1.445l1.693,1.693L36.121,26.465 c-1.17,1.17-3.072,1.17-4.242,0l-6.344-6.344c-1.949-1.949-5.121-1.949-7.07,0l-9.172,9.172l1.414,1.414l9.172-9.172 c1.17-1.17,3.072-1.17,4.242,0l6.344,6.344c1.949,1.949,5.121,1.949,7.07,0l10.826-10.826l1.693,1.693 c0.469,0.469,1.268,0.258,1.445-0.381l1.436-5.178C53.294,11.895,52.105,10.706,50.812,11.065z"/></svg>