<svg xmlns="http://www.w3.org/2000/svg"  viewBox="0 0 64 64" width="96px" height="96px"><linearGradient id="Cm2eiOr2JFJC~u6Owdpnta" x1="32" x2="32" y1="288" y2="236" gradientTransform="matrix(1 0 0 -1 0 294)" gradientUnits="userSpaceOnUse"><stop offset="0" stop-color="#1A6DFF"/><stop offset="1" stop-color="#C822FF"/></linearGradient><path fill="url(#Cm2eiOr2JFJC~u6Owdpnta)" d="M42.296,6H21.704C19.662,6,18,7.662,18,9.704v4.321v32.95v7.321	C18,56.338,19.662,58,21.704,58h20.592C44.338,58,46,56.338,46,54.296v-7.321v-32.95V9.704C46,7.662,44.338,6,42.296,6z M21.704,8	h20.592C43.235,8,44,8.765,44,9.704v2.298c-0.008,0-0.016-0.003-0.025-0.003h-23.95c-0.009,0-0.016,0.002-0.025,0.003V9.704	C20,8.765,20.765,8,21.704,8z M44,47c0,0.014-0.011,0-0.025,0H20V14h24V47z M42.296,56H21.704C20.765,56,20,55.235,20,54.296V49	c0.008,0,0.016,0,0.025,0h23.95c0.009,0,0.016-0.002,0.025-0.003v5.298C44,55.235,43.235,56,42.296,56z"/><linearGradient id="Cm2eiOr2JFJC~u6Owdpntb" x1="32" x2="32" y1="720.333" y2="768.75" gradientTransform="translate(0 -714)" gradientUnits="userSpaceOnUse"><stop offset="0" stop-color="#1A6DFF"/><stop offset="1" stop-color="#C822FF"/></linearGradient><path fill="url(#Cm2eiOr2JFJC~u6Owdpntb)" d="M32,9c-0.552,0-1,0.448-1,1s0.448,1,1,1s1-0.448,1-1S32.552,9,32,9z"/><linearGradient id="Cm2eiOr2JFJC~u6Owdpntc" x1="27" x2="27" y1="18.75" y2="37.25" gradientUnits="userSpaceOnUse"><stop offset="0" stop-color="#8ab4ff"/><stop offset="1" stop-color="#e492ff"/></linearGradient><path fill="url(#Cm2eiOr2JFJC~u6Owdpntc)" d="M27.65,22.27l-2,0.35c-0.96,0.17-1.65,1-1.65,1.97v2.43c0,1.11,0.9,2,2,2h2c1.1,0,2-0.89,2-2 v-2.78c0-0.6-0.26-1.16-0.72-1.54C28.83,22.32,28.23,22.16,27.65,22.27z M28,27.02h-2v-2.43l2-0.35V27.02z"/><linearGradient id="Cm2eiOr2JFJC~u6Owdpntd" x1="27" x2="27" y1="18.75" y2="37.25" gradientUnits="userSpaceOnUse"><stop offset="0" stop-color="#8ab4ff"/><stop offset="1" stop-color="#e492ff"/></linearGradient><path fill="url(#Cm2eiOr2JFJC~u6Owdpntd)" d="M28,31h-2c-1.1,0-2,0.89-2,1.99v2.41c0,0.96,0.69,1.79,1.65,1.95l2,0.36 c0.12,0.02,0.24,0.03,0.35,0.03c0.47,0,0.93-0.17,1.29-0.47c0.45-0.38,0.71-0.94,0.71-1.52v-2.76C30,31.89,29.1,31,28,31z M28,35.74l-2-0.34V33h2V35.74z"/><linearGradient id="Cm2eiOr2JFJC~u6Owdpnte" x1="36.03" x2="36.03" y1="18.75" y2="37.25" gradientUnits="userSpaceOnUse"><stop offset="0" stop-color="#8ab4ff"/><stop offset="1" stop-color="#e492ff"/></linearGradient><path fill="url(#Cm2eiOr2JFJC~u6Owdpnte)" d="M39.37,21.42c-0.42-0.38-1-0.56-1.56-0.49l-4.02,0.47c-1.01,0.12-1.77,0.98-1.77,1.99v3.63 c0,1.11,0.9,2,2,2h4.02c1.11,0,2-0.89,2-2v-4.11C40.04,22.34,39.8,21.8,39.37,21.42z M38.04,27.02h-4.02v-3.63l4.02-0.48V27.02z"/><linearGradient id="Cm2eiOr2JFJC~u6Owdpntf" x1="36.03" x2="36.03" y1="18.75" y2="37.25" gradientUnits="userSpaceOnUse"><stop offset="0" stop-color="#8ab4ff"/><stop offset="1" stop-color="#e492ff"/></linearGradient><path fill="url(#Cm2eiOr2JFJC~u6Owdpntf)" d="M38.04,30.99h-4.02c-1.1,0-2,0.89-2,1.99v3.59c0,1.01,0.76,1.86,1.77,1.98l4.02,0.47 c0.08,0.01,0.16,0.01,0.23,0.01c0.49,0,0.97-0.18,1.34-0.5c0.42-0.38,0.66-0.92,0.66-1.49v-4.06 C40.04,31.88,39.15,30.99,38.04,30.99z M38.04,37.03l-4.02-0.46v-3.58h4.02V37.03z"/></svg>